<svg xmlns="http://www.w3.org/2000/svg" width="100%" height="auto" viewBox="0 0 800 300" version="1.1" preserveAspectRatio="xMidYMid meet" style="max-width: 100%; max-height: 70vh;">
	<path d="M 416 148.031 C 416 195.044, 416.225 204.149, 417.395 204.598 C 420.461 205.775, 427.501 202.762, 431.850 198.413 L 436.235 194.029 438.155 196.470 C 439.212 197.813, 443.087 200.394, 446.767 202.206 C 452.697 205.125, 454.370 205.494, 461.479 205.448 C 471.713 205.381, 478.122 202.715, 484.534 195.860 C 491.912 187.973, 493.500 183.481, 493.500 170.500 C 493.500 160.721, 493.209 158.880, 490.880 153.914 C 484.334 139.955, 469.371 132.705, 453.787 135.940 C 450.676 136.586, 446.188 138.421, 443.815 140.017 L 439.500 142.918 438.978 127.209 C 438.421 110.437, 436.960 104.805, 431.701 99.163 C 429.028 96.296, 420.832 92, 418.033 92 C 416.013 92, 416 92.361, 416 148.031 M 118.105 101.635 C 108.617 106.363, 105.142 112.860, 96.514 142 C 93.338 152.725, 90.423 162.099, 90.035 162.832 C 89.647 163.564, 87.892 157.264, 86.137 148.832 C 84.381 140.399, 81.494 126.525, 79.720 118 L 76.496 102.500 65.730 102.216 C 56.844 101.982, 54.862 102.197, 54.381 103.451 C 53.800 104.964, 75.463 197.923, 77.172 201.250 C 77.936 202.739, 79.552 203, 87.992 203 L 97.913 203 100.334 195.250 C 101.666 190.988, 106.040 176.785, 110.053 163.688 C 114.168 150.261, 117.660 140.448, 118.059 141.188 C 118.448 141.910, 122.020 153.300, 125.997 166.500 C 129.974 179.700, 134.094 193.313, 135.154 196.750 L 137.080 203 147.062 203 C 156.460 203, 157.099 202.869, 158.008 200.750 C 158.991 198.459, 182 101.841, 182 100.005 C 182 99.452, 181.040 99, 179.866 99 C 175.309 99, 169.597 101.557, 165.078 105.620 C 158.053 111.936, 154.945 119.758, 149.904 143.810 C 147.562 154.981, 145.335 163.531, 144.953 162.810 C 144.571 162.090, 141.693 153.175, 138.558 143 C 126.698 104.512, 124.893 99, 124.153 99 C 123.735 99, 121.013 100.186, 118.105 101.635 M 251.123 100.965 C 244.029 102.718, 239.579 108.086, 240.423 113.874 C 241.382 120.458, 247.352 124.346, 256.500 124.346 C 276.848 124.346, 279.085 103.043, 258.987 100.662 C 256.519 100.370, 252.980 100.506, 251.123 100.965 M 306.144 110.698 C 297.579 113.725, 291.309 122.231, 289.519 133.250 C 288.915 136.963, 288.863 137, 284.205 137.015 C 277.201 137.038, 276.866 137.497, 277.205 146.587 L 277.500 154.500 283.250 154.800 L 289 155.100 289.015 177.800 C 289.024 190.285, 289.398 201.079, 289.847 201.787 C 290.448 202.733, 293.420 202.998, 301.082 202.787 L 311.500 202.500 311.768 178.750 L 312.036 155 317.483 155 C 324.247 155, 325.412 153.370, 324.791 144.781 C 324.292 137.884, 323.414 137.037, 316.750 137.015 L 312 137 312 123 C 312 115.300, 311.663 109.036, 311.250 109.079 C 310.837 109.122, 308.540 109.851, 306.144 110.698 M 357.251 136.481 C 346.509 139.505, 338.237 145.676, 334.157 153.709 C 331.303 159.329, 329.708 168.443, 330.452 174.883 C 331.291 182.146, 336.051 191.959, 340.725 196.063 C 354.633 208.275, 380.379 208.927, 393.836 197.408 C 398.860 193.108, 403.271 185.933, 402.824 182.786 C 402.514 180.597, 402.066 180.488, 392.294 180.215 L 382.087 179.931 380.523 182.956 C 378.212 187.424, 374.505 189.429, 368.554 189.429 C 362.136 189.429, 357.879 186.653, 355.614 180.993 C 354.726 178.774, 354 176.519, 354 175.980 C 354 175.367, 363.094 174.994, 378.250 174.985 C 391.587 174.976, 403.131 174.570, 403.903 174.081 C 404.994 173.391, 405.171 171.579, 404.699 165.950 C 403.581 152.615, 396.140 142.469, 384.147 137.929 C 376.811 135.152, 364.353 134.481, 357.251 136.481 M 525.314 136.791 C 509.677 142.393, 502.190 154.668, 503.235 172.990 C 503.831 183.438, 506.096 189.050, 512.466 195.860 C 518.923 202.763, 525.307 205.405, 535.500 205.392 C 545.006 205.379, 552.424 202.509, 558.403 196.530 C 560.455 194.479, 562.240 192.958, 562.369 193.150 C 562.499 193.343, 563.366 194.717, 564.295 196.204 C 566.336 199.468, 573.372 203.712, 577.500 204.168 L 580.500 204.500 580.763 170.250 C 581.062 131.327, 581.773 134.030, 572.383 138.402 C 569.564 139.715, 566.048 142.381, 564.555 144.339 L 561.845 147.893 558.854 144.486 C 551.814 136.468, 536.209 132.888, 525.314 136.791 M 614.407 136.031 C 599.184 139.049, 590.915 150.633, 595.469 162.559 C 598.453 170.371, 604.681 173.643, 622 176.497 C 633.366 178.370, 636.734 179.586, 637.534 182.108 C 639.172 187.267, 634.232 190.565, 626.045 189.778 C 619.932 189.191, 616.262 186.872, 614.403 182.422 L 612.973 179 602.955 179 C 591.476 179, 591 179.358, 592.998 186.493 C 596.606 199.381, 613.193 207.341, 632.500 205.450 C 652.614 203.480, 663.996 191.839, 660.068 177.253 C 657.661 168.314, 651.498 164.343, 634.840 160.999 C 620.121 158.044, 618.108 157.278, 617.373 154.349 C 616.456 150.695, 618.347 149.500, 625.050 149.500 C 630.773 149.500, 631.147 149.662, 634.884 153.750 L 638.769 158 647.262 158 C 658.513 158, 659.373 157.069, 655.366 149.223 C 653.071 144.730, 651.329 142.833, 647.260 140.396 C 639.133 135.529, 625.844 133.763, 614.407 136.031 M 697.344 135.978 C 679.267 139.830, 667.887 155.097, 669.287 173.618 C 670.604 191.032, 681.737 202.337, 700.286 205.096 C 718.006 207.731, 734.519 200.403, 740.378 187.304 C 743.381 180.590, 742.628 180, 731.057 180 L 721.051 180 719.455 183.088 C 717.282 187.290, 710.268 190.390, 704.962 189.494 C 700.094 188.671, 696.174 185.660, 694.379 181.364 C 691.589 174.688, 690.463 175, 717.378 175 C 737.780 175, 741.957 174.756, 742.995 173.506 C 745.021 171.065, 743.321 159.962, 739.862 153.041 C 736.355 146.021, 732.777 142.750, 724.210 138.727 C 719.198 136.374, 716.250 135.704, 709.710 135.433 C 705.194 135.246, 699.630 135.491, 697.344 135.978 M 190.678 136.656 C 189.705 137.628, 189.868 200.244, 190.847 201.787 C 191.448 202.733, 194.420 202.998, 202.082 202.787 L 212.500 202.500 213 184 C 213.432 168.017, 213.764 165.064, 215.441 162.292 C 217.973 158.107, 222.011 156.500, 230 156.500 L 236.500 156.500 236.787 147.859 C 237.016 140.978, 236.747 138.890, 235.466 137.609 C 233.284 135.427, 225.568 135.559, 220.491 137.865 C 216.627 139.621, 210 146.046, 210 148.038 C 210 148.570, 208.343 147.172, 206.318 144.930 C 201.677 139.793, 192.432 134.902, 190.678 136.656 M 246.015 168.250 C 246.024 185.988, 246.398 201.079, 246.847 201.787 C 247.448 202.733, 250.420 202.998, 258.082 202.787 L 268.500 202.500 268.490 179 C 268.479 153.012, 268.239 151.758, 261.882 144.519 C 258.795 141.002, 250.250 136.033, 247.250 136.010 C 246.275 136.002, 246.003 143.103, 246.015 168.250 M 363.333 151.066 C 359.446 152.230, 355 157.304, 355 160.577 L 355 163 368 163 C 379.716 163, 381 162.827, 380.996 161.250 C 380.991 158.873, 377.524 153.351, 375.285 152.153 C 372.309 150.560, 366.721 150.052, 363.333 151.066 M 702.643 151.028 C 698.159 152.372, 693 158.215, 693 161.950 C 693 162.631, 697.741 163, 706.500 163 C 715.643 163, 720 162.645, 720 161.901 C 720 158.526, 716.353 153.611, 712.576 151.895 C 708.102 149.863, 706.885 149.757, 702.643 151.028 M 449.352 154.049 C 445.224 155.302, 440.271 161.037, 439.426 165.541 C 436.936 178.815, 445.663 189.396, 457.479 187.429 C 462.569 186.581, 468.611 180.591, 469.579 175.431 C 471.072 167.473, 467.585 157.989, 462.085 155.045 C 459.202 153.502, 452.802 153.002, 449.352 154.049 M 537.352 154.049 C 527.348 157.086, 523.570 172.936, 530.732 181.825 C 540.235 193.619, 558 186.443, 558 170.811 C 558 165.648, 554.618 158.414, 551 155.836 C 547.891 153.622, 541.511 152.786, 537.352 154.049" stroke="none" fill="black" fill-rule="evenodd"/>
</svg>